<?xml version="1.0" standalone="no"?>
<!DOCTYPE svg PUBLIC "-//W3C//DTD SVG 20010904//EN"
 "http://www.w3.org/TR/2001/REC-SVG-20010904/DTD/svg10.dtd">
<svg version="1.0" xmlns="http://www.w3.org/2000/svg"
 width="700.000000pt" height="700.000000pt" viewBox="0 0 700.000000 700.000000"
 preserveAspectRatio="xMidYMid meet">
<metadata>
Created by potrace 1.14, written by Peter Selinger 2001-2017
</metadata>
<g transform="translate(0.000000,700.000000) scale(0.100000,-0.100000)"
fill="#000000" stroke="none">
<path d="M2708 6995 c-2 -2 -39 -6 -83 -9 -44 -4 -87 -9 -95 -11 -8 -2 -35 -6
-60 -9 -25 -3 -56 -8 -70 -11 -14 -3 -41 -8 -60 -11 -71 -13 -298 -74 -385
-104 -546 -191 -1034 -537 -1367 -970 -216 -282 -365 -569 -464 -895 -29 -93
-70 -263 -78 -320 -3 -22 -8 -51 -11 -65 -19 -91 -30 -256 -30 -460 0 -304 19
-466 86 -718 28 -107 80 -268 109 -337 91 -217 163 -351 285 -535 167 -251
353 -455 606 -665 116 -97 319 -225 499 -316 206 -103 264 -123 355 -123 69 0
86 3 125 27 95 56 142 137 142 241 -1 123 -67 210 -200 266 -123 51 -329 160
-437 232 -478 318 -809 782 -945 1328 -88 349 -95 656 -26 1050 26 148 102
385 170 530 16 36 30 67 31 70 0 3 10 21 23 41 12 20 22 39 22 43 0 3 14 29
31 58 320 536 782 888 1374 1049 44 12 45 13 165 35 47 9 94 18 105 20 100 19
485 26 615 12 785 -90 1473 -578 1819 -1289 94 -195 145 -345 191 -566 11 -51
28 -110 39 -130 51 -100 174 -160 286 -140 129 23 227 135 226 260 0 56 -43
258 -85 398 -69 230 -201 511 -340 724 -112 171 -240 328 -393 481 -84 83
-251 226 -317 271 -23 15 -49 35 -58 43 -28 25 -213 138 -311 190 -267 141
-612 254 -887 290 -47 6 -101 13 -120 16 -39 6 -476 14 -482 9z"/>
<path d="M2827 5898 c-94 -20 -162 -80 -196 -171 -11 -31 -21 -59 -21 -62 0
-3 0 -54 0 -113 l0 -108 -48 -17 c-65 -24 -186 -103 -248 -163 -103 -101 -181
-232 -218 -369 -24 -86 -32 -266 -16 -351 61 -329 276 -574 572 -653 80 -22
116 -27 228 -37 127 -10 199 -55 246 -151 58 -117 25 -266 -75 -338 -82 -60
-190 -72 -276 -31 -59 27 -122 87 -142 134 -20 49 -88 117 -138 141 -123 58
-272 16 -344 -98 -56 -88 -58 -181 -6 -288 82 -168 233 -311 412 -392 l51 -23
4 -122 c3 -112 6 -125 33 -174 114 -208 408 -188 496 33 11 29 17 100 19 211
0 51 0 52 43 69 88 35 184 100 267 184 100 101 156 195 196 326 23 76 27 110
28 220 0 72 -2 149 -6 172 -9 55 -53 183 -80 236 -98 194 -277 343 -484 403
-68 19 -72 20 -154 28 -189 19 -211 27 -277 92 -61 60 -83 119 -77 205 7 111
65 191 168 233 134 54 271 2 336 -127 58 -116 139 -171 255 -172 118 0 215 65
255 172 26 71 25 135 -4 206 -75 182 -233 344 -412 423 -36 16 -54 30 -54 41
-1 171 -8 244 -29 284 -59 115 -181 174 -304 147z"/>
<path d="M5705 3800 c-259 -5 -283 -7 -326 -26 -135 -63 -192 -231 -125 -368
30 -62 70 -99 136 -130 42 -19 64 -20 362 -21 175 0 318 -3 318 -6 0 -4 -178
-185 -396 -403 l-396 -396 -56 0 c-32 0 -354 -1 -716 -2 -562 -2 -667 -4 -705
-17 -40 -14 -167 -136 -1034 -1001 -1092 -1089 -1042 -1033 -1041 -1160 1 -80
29 -144 86 -196 52 -47 99 -66 173 -69 130 -7 62 -66 1094 966 l930 929 707 0
c512 0 718 3 748 12 22 6 61 26 86 45 25 18 236 224 469 458 234 234 427 425
430 425 3 0 6 -120 5 -266 0 -147 3 -289 8 -318 22 -120 114 -202 238 -213
116 -11 216 42 268 141 l27 51 3 666 c3 652 2 667 -18 721 -37 99 -125 166
-229 175 -84 7 -728 9 -1046 3z"/>
<path d="M4475 1483 c-70 -15 -146 -78 -181 -150 l-28 -56 0 -515 c-1 -472 0
-520 17 -575 74 -241 433 -244 513 -4 14 43 16 114 15 565 0 363 -4 527 -12
552 -44 133 -186 213 -324 183z"/>
<path d="M5521 1465 c-56 -26 -104 -72 -134 -129 -22 -41 -22 -43 -22 -591 l0
-550 23 -43 c53 -100 147 -153 260 -147 79 4 140 33 191 91 67 76 68 83 66
664 l-1 515 -23 53 c-61 136 -226 199 -360 137z"/>
<path d="M6616 1465 c-61 -30 -107 -73 -137 -133 l-24 -47 -1 -510 c-2 -534 1
-582 41 -646 50 -78 123 -120 220 -124 112 -5 213 54 258 153 22 46 22 55 22
592 0 540 0 545 -22 586 -70 131 -232 189 -357 129z"/>
<path d="M3373 645 c-82 -25 -133 -68 -175 -147 -28 -55 -36 -226 -13 -301 37
-124 144 -200 270 -192 59 4 69 7 115 27 109 50 151 142 146 318 -3 114 -12
142 -64 208 -62 78 -183 116 -279 87z"/>
</g>
</svg>
